# xmcd CD database file
#
# Track frame offsets:
#	150
#	18656
#	36296
#	54995
#	73378
#	96472
#	115974
#	140283
#	159084
#	176803
#	197623
#	217758
#	232826
#	255686
#	281620
#
# Disc length: 4005 seconds
#
# Revision: 0
# Processed by: cddbd v1.5.1PL0 Copyright (c) Steve Scherf et al.
# Submitted via: CDex 1.51
#
DISCID=d40fa30f
DTITLE=飯島真理 - The Ultimate Collection (1987-1999)
DYEAR=2005
DGENRE=JPop
TTITLE0=Crime
TTITLE1=冷たい空
TTITLE2=Borderline
TTITLE3=Beautiful Music
TTITLE4=にぎりしめたジェラシー
TTITLE5=Patience
TTITLE6=Sudden Kiss (Remix)
TTITLE7=サンセット
TTITLE8=Miss Sally
TTITLE9=Good Medicine
TTITLE10=私たち
TTITLE11=Unbreakable
TTITLE12=Free Style
TTITLE13=Dawn - Rain and Shine
TTITLE14=I Can't Hide
EXTD=YEAR: 2005
EXTT0=
EXTT1=
EXTT2=
EXTT3=
EXTT4=
EXTT5=
EXTT6=
EXTT7=
EXTT8=
EXTT9=
EXTT10=
EXTT11=
EXTT12=
EXTT13=
EXTT14=
PLAYORDER=
